<svg xmlns="http://www.w3.org/2000/svg" viewBox="0 0 40.15 81.79"><defs><style>.a599069f-7d41-4195-94ca-6107a128b602,.aeabac2b-30ac-4eca-ace2-3114af91988e,.f9f8218a-4605-47ad-9380-21d4815c720a{fill:none;stroke-linejoin:round;stroke-width:2.59px;}.a599069f-7d41-4195-94ca-6107a128b602,.f9f8218a-4605-47ad-9380-21d4815c720a{stroke:#fff;}.a599069f-7d41-4195-94ca-6107a128b602,.aeabac2b-30ac-4eca-ace2-3114af91988e{stroke-linecap:round;}.aeabac2b-30ac-4eca-ace2-3114af91988e{stroke:#9dd5d3;}</style></defs><g id="b52134b5-e0ec-4a36-b38b-a0e51c41e0c9" data-name="圖層 2"><g id="addc363c-a765-4ebe-ac67-4d22511211a5" data-name="圖層 1"><rect class="f9f8218a-4605-47ad-9380-21d4815c720a" x="6.81" y="1.29" width="26.53" height="9.91"/><line class="a599069f-7d41-4195-94ca-6107a128b602" x1="20.08" y1="50.06" x2="20.08" y2="68.28"/><line class="a599069f-7d41-4195-94ca-6107a128b602" x1="7.15" y1="17.29" x2="32.69" y2="17.29"/><line class="a599069f-7d41-4195-94ca-6107a128b602" x1="1.29" y1="23.39" x2="38.86" y2="23.39"/><line class="a599069f-7d41-4195-94ca-6107a128b602" x1="11.72" y1="31.64" x2="11.84" y2="28.96"/><line class="a599069f-7d41-4195-94ca-6107a128b602" x1="28.23" y1="31.64" x2="28.13" y2="28.96"/><line class="a599069f-7d41-4195-94ca-6107a128b602" x1="3.3" y1="31.06" x2="3.86" y2="27.66"/><line class="a599069f-7d41-4195-94ca-6107a128b602" x1="36.67" y1="31.07" x2="36.09" y2="27.64"/><line class="a599069f-7d41-4195-94ca-6107a128b602" x1="3.51" y1="50.06" x2="36.13" y2="50.06"/><path class="a599069f-7d41-4195-94ca-6107a128b602" d="M3.51,50.06A213.78,213.78,0,0,1,3,72.24"/><line class="a599069f-7d41-4195-94ca-6107a128b602" x1="11.8" y1="57.72" x2="11.84" y2="56.61"/><line class="a599069f-7d41-4195-94ca-6107a128b602" x1="11.76" y1="62.9" x2="11.69" y2="67.72"/><line class="a599069f-7d41-4195-94ca-6107a128b602" x1="28.37" y1="57.76" x2="28.33" y2="56.65"/><line class="a599069f-7d41-4195-94ca-6107a128b602" x1="28.42" y1="62.9" x2="28.48" y2="67.84"/><path class="a599069f-7d41-4195-94ca-6107a128b602" d="M36.36,50.06a212.22,212.22,0,0,0,.7,22.17"/><line class="a599069f-7d41-4195-94ca-6107a128b602" x1="4.4" y1="43.78" x2="35.78" y2="43.78"/><line class="a599069f-7d41-4195-94ca-6107a128b602" x1="20.08" y1="1.29" x2="20.08" y2="43.78"/><line class="a599069f-7d41-4195-94ca-6107a128b602" x1="27.11" y1="6.11" x2="26.52" y2="6.17"/><line class="a599069f-7d41-4195-94ca-6107a128b602" x1="13.63" y1="6.17" x2="13.04" y2="6.11"/><line class="a599069f-7d41-4195-94ca-6107a128b602" x1="8.6" y1="37.11" x2="31.58" y2="37.11"/><line class="aeabac2b-30ac-4eca-ace2-3114af91988e" x1="2.82" y1="77.39" x2="2.82" y2="80.5"/><line class="aeabac2b-30ac-4eca-ace2-3114af91988e" x1="11.43" y1="77.39" x2="11.43" y2="80.5"/><line class="aeabac2b-30ac-4eca-ace2-3114af91988e" x1="20.09" y1="77.39" x2="20.09" y2="80.5"/><line class="aeabac2b-30ac-4eca-ace2-3114af91988e" x1="28.34" y1="77.39" x2="28.34" y2="80.5"/><line class="aeabac2b-30ac-4eca-ace2-3114af91988e" x1="37.06" y1="77.39" x2="37.06" y2="80.5"/></g></g></svg>